<svg viewBox="0 0 24 24" fill="none" xmlns="http://www.w3.org/2000/svg" id="Add-Square--Streamline-Solar-Ar" height="24" width="24">
  <desc>
    Add Square Streamline Icon: https://streamlinehq.com
  </desc>
  <path d="M2 12c0 -4.71405 0 -7.07107 1.46447 -8.53553C4.92893 2 7.28595 2 12 2c4.714 0 7.0711 0 8.5355 1.46447C22 4.92893 22 7.28595 22 12c0 4.714 0 7.0711 -1.4645 8.5355C19.0711 22 16.714 22 12 22c-4.71405 0 -7.07107 0 -8.53553 -1.4645C2 19.0711 2 16.714 2 12Z" stroke="#c99b24" stroke-width="1.5"></path>
  <path d="m15 12 -3 0m0 0 -3 0m3 0 0 -3m0 3 0 3" stroke="#c99b24" stroke-linecap="round" stroke-width="2"></path>
</svg>
