<svg viewBox="0 0 24 24" fill="none" xmlns="http://www.w3.org/2000/svg" id="Posts-Carousel-Horizontal--Streamline-Solar-Ar" height="24" width="24">
  <desc>
    Posts Carousel Horizontal Streamline Icon: https://streamlinehq.com
  </desc>
  <path d="M12.5 5c1.8856 0 2.8284 0 3.4142 0.58579C16.5 6.17157 16.5 7.11438 16.5 9v6c0 1.8856 0 2.8284 -0.5858 3.4142C15.3284 19 14.3856 19 12.5 19h-1c-1.88562 0 -2.82843 0 -3.41421 -0.5858C7.5 17.8284 7.5 16.8856 7.5 15l0 -6c0 -1.88562 0 -2.82843 0.58579 -3.41421C8.67157 5 9.61438 5 11.5 5l1 0Z" stroke="#f2f6ff" stroke-width="1.5"></path>
  <path d="M22 19h-0.5c-1.3807 0 -2.5 -1.1193 -2.5 -2.5l0 -9C19 6.11929 20.1193 5 21.5 5l0.5 0" stroke="#a7b4cc" stroke-linecap="round" stroke-width="1.5"></path>
  <path d="M2 19h0.5C3.88071 19 5 17.8807 5 16.5l0 -9C5 6.11929 3.88071 5 2.5 5L2 5" stroke="#a7b4cc" stroke-linecap="round" stroke-width="1.5"></path>
</svg>
