<svg width="24" height="24" viewBox="-0.75 -0.75 24 24" fill="none" xmlns="http://www.w3.org/2000/svg">
  <path d="M7.5 11.25H7.508446875M11.25421875 11.25H11.262656250000001M14.9915625 11.25H15" stroke="#dce5f5" stroke-width="1.5" stroke-linecap="round" stroke-linejoin="round"></path>
  <path d="M1.875 11.25C1.875 6.830578125 1.875 4.620871875000001 3.247940625 3.247940625C4.620871875000001 1.875 6.830578125 1.875 11.25 1.875C15.669374999999999 1.875 17.87915625 1.875 19.252031249999998 3.247940625C20.625 4.620871875000001 20.625 6.830578125 20.625 11.25C20.625 15.669374999999999 20.625 17.87915625 19.252031249999998 19.252031249999998C17.87915625 20.625 15.669374999999999 20.625 11.25 20.625C6.830578125 20.625 4.620871875000001 20.625 3.247940625 19.252031249999998C1.875 17.87915625 1.875 15.669374999999999 1.875 11.25Z" stroke="#dce5f5" stroke-width="1.5"></path>
</svg>
